<svg xmlns="http://www.w3.org/2000/svg" version="1.1" xmlns:xlink="http://www.w3.org/1999/xlink" xmlns:svgjs="http://svgjs.com/svgjs" height="281.57998809814455" width="282.99553527832035"><defs id="SvgjsDefs3353"></defs><g id="SvgjsG3354" rel="mainfill" name="main_text" xmlns:name="main_text" transform="translate(50.982768845558184,-93.19000930786132)" fill="#000000"><path d="M0.86 227.96L0.86 240L11.08 240L11.08 237.59L3.27 237.59L3.27 227.96ZM14.52 234.00L14.52 232.79L16.91 230.37L20.52 230.37L20.52 234.00ZM14.52 240L14.52 236.40L20.52 236.40L20.52 240L22.91 240L22.91 227.96L15.71 227.96L12.11 231.59L12.11 240ZM35.44 240L35.44 227.96L33.04 227.96L33.04 235.97L27.04 227.96L24.63 227.96L24.63 240L27.04 240L27.04 231.97L33.04 240ZM47.96 231.57L44.36 227.96L37.16 227.96L37.16 240L46.77 240L47.96 238.81ZM45.57 237.59L39.56 237.59L39.56 230.37L43.16 230.37L45.57 232.78ZM51.92 240L51.92 227.96L49.51 227.96L49.51 240ZM64.44 240L64.44 227.96L62.05 227.96L62.05 235.97L56.04 227.96L53.64 227.96L53.64 240L56.04 240L56.04 231.97L62.05 240ZM75.77 240L76.96 238.81L76.96 233.10L71.54 233.10L71.54 235.51L74.57 235.51L74.57 237.59L68.57 237.59L68.57 230.37L74.57 230.37L74.57 231.57L76.96 231.57L76.96 229.18L75.77 227.96L67.35 227.96L66.16 229.18L66.16 238.81L67.35 240ZM78.17 235.20L82.96 235.20L82.96 232.79L78.17 232.79ZM90.28 240L90.28 230.37L94.46 230.37L94.46 227.96L83.65 227.96L83.65 230.37L87.87 230.37L87.87 240ZM105.88 240L105.88 237.59L98.07 237.59L98.07 235.20L105.28 235.20L105.28 232.79L98.07 232.79L98.07 230.37L105.88 230.37L105.88 227.96L95.66 227.96L95.66 240ZM109.83 240L109.83 231.88L113.05 236.51L115.06 236.51L118.21 231.88L118.21 240L120.62 240L120.62 227.96L118.30 227.96L114.03 233.79L109.83 227.96L107.43 227.96L107.43 240ZM124.75 234.00L124.75 230.37L130.75 230.37L130.75 234.00ZM124.75 240L124.75 236.40L131.96 236.40L133.14 235.20L133.14 229.18L131.96 227.96L122.34 227.96L122.34 240ZM134.69 227.96L134.69 240L144.91 240L144.91 237.59L137.10 237.59L137.10 227.96ZM148.35 234.00L148.35 232.79L150.74 230.37L154.35 230.37L154.35 234.00ZM148.35 240L148.35 236.40L154.35 236.40L154.35 240L156.74 240L156.74 227.96L149.54 227.96L145.94 231.59L145.94 240ZM164.57 240L164.57 230.37L168.75 230.37L168.75 227.96L157.95 227.96L157.95 230.37L162.16 230.37L162.16 240ZM180.17 240L180.17 237.59L172.36 237.59L172.36 235.20L179.57 235.20L179.57 232.79L172.36 232.79L172.36 230.37L180.17 230.37L180.17 227.96L169.95 227.96L169.95 240Z" fill="#000000" style="fill: rgb(0, 0, 0);"></path></g><g id="SvgjsG3355" transform="translate(0.044444598257541656,0) scale(2.6)" rel="mainfill" name="outline_container" xmlns:name="outlineContainer_mainfill" fill="#F7E967"><g fill="#F7E967"><g fill="#F7E967"><path d="M103.2 75.8l-.7 1.4-.4.7-.4.7c-.5.9-1 1.8-1.6 2.7l-.5.7-.2.4-.2.3-1 1.4-1 1.3-.5.7-.6.6-1.3 1.5-.7.7-.7.7-1 1-.5.5-.5.5-1 .9-1.1.9-.7.6-.8.6-.8.6-.4.3-.4.3-1.4 1-1.5.9-.8.4-.8.4-.8.4-.4.2-.4.2-1.5.6-.7.2-.5.2 1.5-.9 3-2.1.7-.5h.3l.3-.3 1.2-1 1.5-1.5.7-.7.7-.8.4-.4.4-.5.8-.9a40 40 0 0 0 6.1-8.2V82l.3-.5.5-.9a34 34 0 0 0 3.3-6.6l.2-.4.4-.8.4-.8.2-.4.2-.4.8-1.8.2-.4v-.4l.3-.9.2-.6.2-.6.4-1.3.3-1.3.3-1.3a37.3 37.3 0 0 0 1.1-8.6v-.6-1.7-2.6c0-.3 0-.5-.1-.8l-.2-1.6v-1.2l-.2-1.1c-.1-.5-.2-1-.3-1.4l-.3-1.4-.4-1.4-.2-.7-.2-.7a28.5 28.5 0 0 0-1.3-3.9l-.8-1.9-.9-2c-.1.1.1.6.6 1.7l.6 1.4.3.7.3.7c.3 1 .7 2 1 3l.2.8v.7l.4 1.6.3 1.7V45c.1.6.2 1.3.2 2v1c0 .3.1.7.1 1V53.2c0 .5 0 .9-.1 1.4v3.8l-.2 1.7-.3 1.7-.2.9-.2.8-.2.8v.8l-.5 1.5-.3.7-.3.7-.4.9-.4.9-.4.9h-.1l.2-1.7c0-.1 0-.1-.1 0v.4l-.4 1-.2.6v.7l-.6 1.5v.4l-.2.4-.3.9-.9 2c-.7 1.3-1.5 2.5-2.4 3.7l-.6.8-.6.8-.9 1.4 1-1.1.5-.6.3-.3.3-.3.3-.4-1 1.7-.7 1.1-.7 1.1-1.5 2.1-2.8 3.6-.6.6-.5.4-.6.6-.5.4-.5.3-1 .7-.3.2-.3.2-.7.6-.8.6-.9.6-.7.5-.3.2-.4.2-1.4.9-.4.2-.4.2-.7.4-.7.4-.8.4-.8.4-.4.2-.4.2-1.7.7-1.7.6-.4.2h-.4l-.8.3-1.1.3-1 .3-1 .3-.8.2-1.4.2h-2l-1.6.2h1.8l-.8.2h-.8l-1.5.3-1.9.2h-6.8A51.5 51.5 0 0 1 40 103l-4.2-1.3-.9-.3-.9-.3-1.7-.7-1.7-.8-1.6-.8-.4-.2-.4-.2-.7-.4a20.2 20.2 0 0 1-3-1.8L23 95l-.8-.7-.8-.7-.5-.4-.5-.5-.9-.9-.2-.2-.2-.2-.4-.5-.9-1-.8-1-.8-1-.7-1-.4-.5-.2-.2-.2-.2-1-1.6-.7-1.2.3.4.6.6.6.6 1.3 1.2 1.3 1.2.3.3.3.3.6.5.7.6h.3l.3.3 1.4 1.1 1.4 1 1.1.8 1.1.8 1.2.7 1.3.7 1.3.7.3.2.3.2.7.3.7.3.7.3 1.4.6.7.3.7.3 1.5.5 1.5.4.8.2h.5a66.4 66.4 0 0 0 6.6 2.8l1.6.5 1.7.5 2.9.6 3.9.4h-.5l-1.4-.2h-1.2l-1.4-.3-1.4-.3-1.4-.3-1.4-.4-1.4-.5-1.3-.5-.6-.2-2.6-1.1 1.6.3h1.6l1.6.2h14.2l1.6-.2h1.6l1-.2a72.1 72.1 0 0 0 8.1-2.2l1.2-.4a65.8 65.8 0 0 0 8.2-3.9l1.5-.9 1.4-.9a20.3 20.3 0 0 0 2.4-1.8c1-.8 2-1.8 2.9-2.7a2.2 2.2 0 0 0 .5-.7l-.4.2-.4.3-.4.3-1.1.9-.5.5-.6.4-1.1.9-1.2.9-1.2.9-1.2.8-1.3.7-1.3.7-.5.3a48.2 48.2 0 0 1-9.4 3.7l-2.4.6h-1l-1.2.2h-2.2l-1.8.2h-3.7l1.5-.3.9-.2.9-.2 1.7-.4.9-.2.8-.3.8-.3.8-.3a49.5 49.5 0 0 0 6.7-2.9l.8-.4.4-.2.4-.2 1.6.2 3-2 .7-.5h.3l.3-.3 1.2-1 1.5-1.4.7-.7.7-.7.4-.4.4-.5.8-.9a43.6 43.6 0 0 0 6-7.8v-.5l.3-.5.7-.8a42.2 42.2 0 0 0 3.4-7.7c.4-1.3.7-2.7.9-3.9s0-.1 0 0v.4l-.4 1-.2.6v.7l-.5 1.5v.4l-.2.4-.3.9a49.3 49.3 0 0 1-4 7.8l-.7 1.1-.8 1.1-1.5 2.1-2.9 3.5-.6.6-.5.4-.6.6-.4.4-.5.4-1 .7-.3.2-.3.3-.7.6-.8.6-.9.6-.7.5-.4.2-.4.2-1.4.9-.4.2-.4.2-.7.4-.7.4-.8.4-.8.4-.4.2-.4.2-1.7.8-1.7.7-.4.2h-.4l-.8.3-1.1.3-1.1.3-1 .3-1 .3-1.5.4-1.5.3h-2.1l-1.5.2-1.9.2h-3.5l-1.5.3-2-.4-1.2-.3-1.2-.3H43l-.6-.2-1.2-.4-.6-.2-.6-.2-1.1-.4-.6-.2-.5-.2-1.1-.5-1.4-.8-.7-.4-.7-.4-1.4-.8-1.4-.8-.7-.4-.6-.4-1.3-.8-2.4-1.6-1-.7-.4-.4a50.1 50.1 0 0 1-4.8-5.9l-1.1-1.7h-.1v.2l1 1.2 1 1.2a26.9 26.9 0 0 0 2.3 2l.3.3.3.2.5.4.7.5.5.2-1.5-1.6-.2-.2-.2-.2-.4-.4-.8-.9-.2-.2-.2-.2-.4-.5-.8-.9-.8-1-.8-1-.5-.6-1.3-1.9-1.2-1.9v-.2l-.2-.6-.2-.6-.2-.6-.4-1.1-.2-.6-.2-.6-.6-1-.5-1.6-.2-.8-.2-.8-.4-1.6-.3-1.6-.2-.8v-.8l-.2-1.4-.4-2.8c-.3-3.1-.4-2.9-.5-.8v2.8c0 .3 0 .5.1.8v.8l.2 1.4c.4 2.1.9 4.3 1.5 6.4l-1-2.7c-.3-.9-.6-1.8-.8-2.7v-.7l-.2-.7-.2-.7-.2-.7c-.2-1-.4-1.9-.5-2.9l-.2-1.5-.2-1.5v-2.6-1.4-.7-.8a46.8 46.8 0 0 1 .6-6.3l.4-1.2.2-.7.3-.7.5-1.4.5-1.1.5-1.1.5-1.1.2-.5V35l.7-1.3.2-.4.2-.4.4-.7c.8-1.4 2-3 2.8-4l.4-.6.4-.6.9-1.1 1-1.1.5-.5.5-.5.9-.9 1-.9.5-.4.5-.4 1-.8.5-.4.5-.4 1.1-.8.6-.4.6-.4 1.2-.7a51.8 51.8 0 0 1 5.3-2.6l-4 2.7-1.3 1-.3.3-.3.3-.6.5-.6.5-.6.6-1.2 1.1a47.3 47.3 0 0 0-6 7.4L19 30.9l-1 1.9-.4.8-.6 1v.5l-.2.5-.8 1.2-.2.5-.2.5-.4 1.2-.3 1.1-.6 2.1-.3 1v1.1l-.2 1.1v1.2l-.3 1.5c-.1.5-.1 1-.2 1.5a26.8 26.8 0 0 0-.2 3V54a5.2 5.2 0 0 0 .1.9l.2.5c.1-.7.2-1.4.2-2.2v-4.6l.2-1.3.2-1.3v-.7c.2-.7.3-1.5.5-2.2s.4-1.5.7-2.2a46.9 46.9 0 0 1 4-8.7l1.8-2.4.2-.3.2-.3.4-.6.4-.6.4-.6 1.8-2.3 1-1.1 1-1.1.4-.5.5-.5 1-1 1.1-.9.5-.5.3-.2.3-.2a46.8 46.8 0 0 1 8.1-5.4l1.6-.8.6-.2 1.2-.3 1.2-.3 1.2-.3 1.2-.2 1.2-.2 1.2-.2.9-.2h7.4l1.5.2h3.6l1.4.2h.7l.7.2.7.2.7.2 3 .9.7.2.7.2 1.4.5.6.2.6.3.8.4.4.2.4.2 1.6.8 1.1.6.6.3.6.3 1.1.7.5.3.5.4a46.7 46.7 0 0 1 12.3 12.3l.2.2.9 2.1c.4 1.1.9 2.3 1.3 3.5a51.5 51.5 0 0 1 2 8.1l.2 1.7v10l.2-1v-.8c0-.3.1-.5.1-.8v-1.5-.7-2.3a46.8 46.8 0 0 0-.9-8.1 45.6 45.6 0 0 0-1.6-5.7 30.2 30.2 0 0 1 1.5 3.2c.4 1.1.9 2.3 1.3 3.5a55.5 55.5 0 0 1 2.1 8l.3 1.7v9.8l.4-.9V60c0-.3.1-.5.1-.8v-4.3a44.2 44.2 0 0 0-.8-8.1 45.3 45.3 0 0 0-2.7-8.6 49.3 49.3 0 0 0-4.3-8l-1.2-1.7-.8-1.1-.9-1.2-1-1.1-.2-.2H90l-1.2-1.7-.8-1.1-.9-1.2-.9-1.1-.5-.5-.5-.5-1-1-.5-.5-.5-.4-1-.9-1-.8-.5-.4-.3-.2-.3-.2-1-.8-.5-.4-.5-.4L77 12l.5.2.7.3.7.3 1.4.6 1.4.7.7.4.7.4 1.3.8 1.3.8.6.4.6.4.6.4.6.4 1.5 1.1a43.6 43.6 0 0 1 6 5.9l.5.5.5.6.6.8.6.8 1.8 2.2.8 1.2.7 1.2 1.1 2 1 1.8c.6 1 .7 1 .2-.3l-.4-1.1-.5-1.1-.4-1-.5-1-.6-1-.7-1a48 48 0 0 0-3.4-4.7 41.8 41.8 0 0 0-3.9-4l-1.3-1.1a48.1 48.1 0 0 0-11.5-7.6l-1.5-.7-1.5-.6-.8-.3-.8-.3-1.6-.6h-.5A61.3 61.3 0 0 0 65.3 6l-.6-.2H64l-3.4-.9 2.6.3 1.4.2 1.4.3 2.3.5 2 .5c1.1.2 1.2.2-.1-.3L69.1 6 68 5.3 67 5l-1.1-.3-1.2-.3-1.2-.2a48 48 0 0 0-5.7-.5h-14l-3.3.6h-.9l-.9.2-1.9.5-.9.3-.9.3-.8.3h-.8l-1.6.7-.4.2-.4.2-.8.4-1.1.5L28 9.2l-.5.3-.3.2-.3.2-1.1.7-.6.3-.6.4-1.1.7-.3.2-.3.2-.6.4-1.1.8-1.8 1.4-1.7 1.4a57.8 57.8 0 0 0-4.7 5.1l-1.1 1.4-.5.7-.5.7-.5.7-.5.8-.5.8-.2.4-.2.4-1 1.4-.8 1.6-.2.4-.2.4-.4.8-.4.8-.3.8-.4.9-.3.9-.6 1.9-.5 1.9-.2 1-.2 1c-.2.6-.2 1.3-.3 1.9L3 44c0 .3-.1.6-.1.9v4.7c0 .1.1.8.1 1.3s.2.4.4-1.7v-3.3l.2-1.3.2-1.3V42l.3-1.3.2-.7.2-.7.4-1.5.5-1.5.2-.7.3-.7.6-1.4.5-1.2.5-1.1.5-1.1.3-.5V29l.7-1.3.2-.4.2-.4.5-.7c.9-1.4 2.1-3 2.9-4.1l.4-.6.5-.5.9-1.1 1-1.1.5-.5.5-.5.9-.9 1-.9.5-.4.5-.4 1-.8.5-.4.5-.4 1.1-.8.6-.4.6-.4 1.2-.7A49.3 49.3 0 0 1 34.7 7l.6-.2.6-.2 1.2-.4 1.3-.3 1.3-.3 1.2-.2 1.2-.2 1.3-.2h3.7A48 48 0 0 0 37 7.8l-1.5.7-1.5.7-.7.4-.7.4-1.4.8-1.6 1-.8.5-.8.6a46.6 46.6 0 0 0-6.5 5.8l-.7.8-.7.8-1.5 1.7-1.3 1.7-1.2 1.8a50.8 50.8 0 0 0-3.2 5.7l-.4.7-.3.8-.6 1.5-.6 1.6v.2l-.2.4-.2.4-.4.8-.4.8-.3.8-.3.9-.3.9-.7 2-.5 2-.2 1-.2 1c-.1.6-.2 1.3-.3 1.9v.9c0 .3-.1.6-.1.9v4.2a5.1 5.1 0 0 0 0 .5c.1.5.2.8.3 1.3s.5.4.7-1.6v-1.2l.1-1.1v-1.3l.2-1.3.2-.8v5.1a47.2 47.2 0 0 0 1.6 9.4l.6 2 .7 2 .3.8.4 1.1v.6l.2.5.5 1.1.3.5.3.5.6 1.1.6 1 .8 1.2.4.9.5.9a40.4 40.4 0 0 0 2.8 4.4l.9 1.3.5.7.5.7 1 1.3.3.3.3.3.5.6 2.3 2.3 1.2 1.1.6.6.6.5.8.6a74 74 0 0 0 6.3 4.2L32 96l-.9-.3-.9-.4-1.7-.7-1.5-.8-1.6-.8-.4-.2-.4-.2-.7-.4a28.8 28.8 0 0 1-2.9-1.9l-1.6-1.2-.8-.7-.8-.7-.5-.4-.5-.5-.9-.9-.2-.2-.2-.2-.4-.5-.9-.9-.8-1-.8-1-.7-1h-.1l-.4-.7-.4-.8-.4-.8-.4-.8-.8-1.7c-.5-1.2-1-2.3-1.4-3.5l-.3-.9-.3-.9-.3-.9V69l-.4-1.8c-.1-.3-.1-.6-.2-1l-.2-1v-1.4l-.2-1.5c0-.2-.1-.5-.1-.7v-1.5c0-.2-.1-.5-.1-.7s-.3-2.4-.4-2.2l-.7 1.7c0 1.6.1 3.6.3 5.4a31 31 0 0 0 1.6 7l-.4-.8c-.5-1.2-1-2.3-1.3-3.5l-.3-.9-.3-.9-.3-.9v-.9l-.4-1.8c-.1-.3-.1-.6-.2-1l-.2-1v-1.3l-.2-1.5c0-.2-.1-.5-.1-.7v-1.5-.7c0-.2-.2-2.4-.2-2.2l-.4 1.7a52.9 52.9 0 0 0 .4 5.3 38.7 38.7 0 0 0 1.8 7.7L4 67.7l.3.7.3.7.4.9.2.5.2.5.9 1.8.9 1.8.2.4.3.4.5.9.2.4.9 1.9 1 1.8.3.5.3.4.5.9.2.4.3.4.5.8.5.8.5.7.5.7.5.7 1.1 1.4.6.7.6.6.6.6.6.6 1.3 1.4 1.3 1.2.3.3.3.3.7.5.7.6h.3l.4.3 1.4 1.1 1.5 1 1.1.8 1.1.8 1.2.8 1.3.8 1.3.7.3.2.3.2.7.3.7.3.7.3 1.4.6.7.3.7.3 1.5.6 1.6.5.8.2.8.2 1.6.4 1.6.3h13.8l2.9-.5.9-.2.9-.2 1.7-.5.9-.3.9-.3.9-.3.8-.3 4.5-1.9h.8l1.9-.6.4-.2.4-.2.8-.4.6-.3.6-.3 1.2-.6 1.2-.6 1.2-.6a37.2 37.2 0 0 0 7.2-4.8l.5-.4 1.3-1.1.6-.5.6-.6.6-.6.6-.6 1.1-1.2.4-.4.4-.4.7-.9.9-1.1.9-1.2.8-1.2.4-.6.4-.6a28.5 28.5 0 0 0 2-3.6l.9-1.8.9-2c-.1.3-.4.8-.8 1.8zm-29.6-65l.6.3.6.3 1.1.7.5.3.5.4a47.6 47.6 0 0 1 8.9 7.9l-.5-.4-.5-.4-.3-.2-.3-.2-1-.8-.5-.4-.5-.4-1.1-.8-.3-.2-.3-.2-.6-.4-1.2-.8-1-.5-1.2-.6-1.2-.6-.6-.3-.6-.3-1.2-.5h-.6l-.6-.3-1.2-.5-1.3-.5-.6-.2h-.7A49.4 49.4 0 0 0 58.1 9h-2.7l1.9-.2H67l.9.2 4.8 1.1zM17 25.6l.5-.8.5-.8 1.1-1.5.3-.4.4-.4.7-.8.2-.2h.2l.4-.4.8-.8 1.6-1.6.4-.4.4-.4.8-.7.7-.6.7-.6a48.4 48.4 0 0 1 8.4-5.4l.7-.4.7-.3 1.5-.8 1.4-.6.7-.3.7-.3 1.5-.5 1.5-.4.7-.2.7-.2.7-.2.7-.2 1.8-.4 4.3-.5h4.8l1.4.2h.7l.7.2.7.2.7.2L65 7l.7.2.7.2 1.4.5.6.2.6.3h.1a46.5 46.5 0 0 0-7.4-.8h-4.3l-2.2.2-2.2.4a54.9 54.9 0 0 0-5.4 1.1l-3.3.7h-.9l-.9.3-1.9.6-.9.3-.9.3-.8.3-.4.2h-.4l-1.6.7-.4.2-.4.2-.8.4-1.1.6-1.1.6-.5.3-.3.2-.3.2-1.1.7-.6.3-.5.4-1.1.7-.3.2-.3.2-.6.4-1.1.8-1.8 1.4-1.6 1.5a65.7 65.7 0 0 0-4.9 5.1l-1.1 1.4-.5.7-.5.7-.5.7a47.7 47.7 0 0 1 2.8-5zm16.8 70.2l-2-1.4-.5-.4-.5-.4-1-.7-.5-.4-.5-.4-.2-.2h.1l1.2.8a65 65 0 0 0 7.3 3.8l.9.4.5.2.5.2 1.9.7 1.9.6 1 .3h.1a51.1 51.1 0 0 1-7.3-1.4zM106.6 47l.2 1.3.2 1.3v.9c0 .3 0 .6.1.9V56.9c0 .4 0 1.6.2 1.1v-.5-1-2-1-1a28.5 28.5 0 0 0-.6-4.8l-.3-1.4v-.7l-.2-.7a2.2 2.2 0 0 0 0 .7zM88.5 16.3l-.7-.7-.7-.6-.7-.6-.4-.4-.4-.3a28.4 28.4 0 0 0-4.1-2.7l-1.3-.7-.3-.2-.3-.2-.7-.3.5.5 1.2.8 1.1.7 1.1.8.8.5.7.5 1.1.8.5.4.5.4 1.1.9 1 .9c1 .8 1.2 1 1 .6l-.3-.4z" fill="#F7E967" style="fill: rgb(247, 233, 103);"></path><path d="M19.8 13.2l1-.6 1.7-1.2 2-1.5 2.1-1.3 2.1-1.3 2.1-1.1 1.8-.9 1.8-.8L38 3.1 41.9 2l1.9-.5 2-.3 2-.3 2-.2 4-.2c1.3-.1 2.7.1 4 .1h2l2 .3 2.4.4 1.2.2 1.1.3 3.4.9L73.2 4a66 66 0 0 1 6.3 2.6 34.2 34.2 0 0 1 3.3 1.8l1.6 1 1.6 1.1c1.1.9 2.3 1.6 3.3 2.6l3.1 2.8 3.6 3.9 3.2 4.2 2.4 3.8a17.6 17.6 0 0 1 1.1 1.9l1 1.9a10.2 10.2 0 0 0 .8 1.2c-.3-.7-.5-1.4-.9-2.1l-1.1-2.3-1.3-2a44 44 0 0 0-2.5-3.7l-1.4-1.8a16.8 16.8 0 0 0-1.4-1.9 52.6 52.6 0 0 0-21-15l-2.6-.9-2.7-.9c-1.6-.4-3.1-.9-4.8-1.2L60 .2 55.1 0c-1.7 0-3.3.1-4.9.2a55 55 0 0 0-18.9 5.2l-2.8 1.4-2.7 1.6a51.3 51.3 0 0 0-5 3.7c-.9.6-1.2 1.2-1 1.1zM31.1 102.6l-1.5-.8-.8-.4-.7-.4-2.4-1.4-1.2-.7-1.1-.8A56.6 56.6 0 0 1 7.2 80.2a61.5 61.5 0 0 1-5.6-15l-.9-5.1c-.2-1.7-.3-3.4-.4-5.2s-.2-.9-.3-.2 0 1.9 0 2.9a22 22 0 0 0 .2 3.2A55.4 55.4 0 0 0 9.5 85l1.7 2.2 1.1 1.4 1.2 1.3 2.4 2.6 2.6 2.4 1.3 1.1 1.4 1 2.8 2.2a56.8 56.8 0 0 0 6.8 3.8 7.8 7.8 0 0 0 2.2.8c.3 0-.5-.5-1.9-1.2zM89.3 95.3l-1.4 1.1-1.4 1.1a48.1 48.1 0 0 1-14.8 7.8 30.5 30.5 0 0 1-3.8 1.1 30.4 30.4 0 0 1-3.9.9l-4 .6-4 .2h-1.6c0 .1.2.2.8.2s3.5 0 5.3-.2l3.3-.5 1.7-.3 1.6-.4 3.3-.8 3.2-1.1a53.4 53.4 0 0 0 10.7-5.4c1-.6 1.9-1.4 2.8-2.1a27.4 27.4 0 0 0 2.7-2.2 9.9 9.9 0 0 0 2-2.2 12.1 12.1 0 0 0-2.5 2.2zM.3 54.3a5.9 5.9 0 0 0 .4-2.5l.2-3 .4-2.9c.2-1 .2-1.9.5-2.9l.7-2.9a52.5 52.5 0 0 1 1.9-5.9h.1l.3-.9.4-.9.8-1.8a5.7 5.7 0 0 0 .4-1.2c0-.1-.3.2-.5.6l-1.5 3c-.5 1.1-.9 2.3-1.4 3.6s-.5 1.2-.6 1.8l-.5 1.9c-.3 1.3-.7 2.5-.9 3.7l-.5 3.8v3.8c-.4 1.8-.3 2.8-.2 2.7zM108.7 53.4l-.2-1.6c-.1-.5-.2-1.1-.2-1a8.8 8.8 0 0 0-.1 1.5c0 .5 0 1.4.1 2a55.7 55.7 0 0 1-1.7 13.7l-.5 2c-.2.7-.5 1.3-.7 1.9l-1.2 3.2a9.6 9.6 0 0 0-.9 2.4c0 .3.4-.4 1-1.4s1.3-3.4 1.7-4.3a15.3 15.3 0 0 0 .7-2.1l.4-1.5c.2-1.1.5-2.1.7-3.2l.5-3.3.2-1.6c.1-.6.1-1.1.1-1.7l.2-3.3v-1.7z" fill="#F7E967" style="fill: rgb(247, 233, 103);"></path></g></g></g></svg>